<svg width="42" height="51" viewBox="0 0 42 51" fill="none" xmlns="http://www.w3.org/2000/svg">
<path fill-rule="evenodd" clip-rule="evenodd" d="M9.27332 21.5929C9.27332 18.4841 10.5088 15.5026 12.708 13.3043C14.9072 11.106 17.8899 9.87103 21 9.87103C24.1101 9.87103 27.0929 11.106 29.2921 13.3043C31.4912 15.5026 32.7267 18.4841 32.7267 21.5929C32.7267 24.7017 31.4912 27.6832 29.2921 29.8815C27.0929 32.0797 24.1101 33.3147 21 33.3147C17.8899 33.3147 14.9072 32.0797 12.708 29.8815C10.5088 27.6832 9.27332 24.7017 9.27332 21.5929ZM21 13.5727C18.8721 13.5727 16.8312 14.4177 15.3265 15.9217C13.8218 17.4258 12.9765 19.4658 12.9765 21.5929C12.9765 23.72 13.8218 25.7599 15.3265 27.264C16.8312 28.7681 18.8721 29.6131 21 29.6131C23.128 29.6131 25.1688 28.7681 26.6735 27.264C28.1782 25.7599 29.0236 23.72 29.0236 21.5929C29.0236 19.4658 28.1782 17.4258 26.6735 15.9217C25.1688 14.4177 23.128 13.5727 21 13.5727Z" fill="black"/>
<path fill-rule="evenodd" clip-rule="evenodd" d="M0.0746455 18.7722C0.496625 13.6561 2.8279 8.88563 6.60559 5.40802C10.3833 1.93042 15.3311 -1.56347e-05 20.4668 0H21.5333C26.6689 -1.56347e-05 31.6168 1.93042 35.3945 5.40802C39.1722 8.88563 41.5034 13.6561 41.9254 18.7722C42.395 24.471 40.6337 30.1295 37.0126 34.556L25.1797 49.0195C24.6733 49.6385 24.0356 50.1373 23.3128 50.4798C22.5899 50.8223 21.8 51 21 51C20.2001 51 19.4101 50.8223 18.6873 50.4798C17.9645 50.1373 17.3268 49.6385 16.8204 49.0195L4.98752 34.556C1.36611 30.1296 -0.3952 24.471 0.0746455 18.7722ZM20.4668 3.70163C16.2612 3.70227 12.2095 5.28354 9.11612 8.13155C6.0227 10.9796 4.11366 14.8861 3.76794 19.0758C3.37689 23.8184 4.84257 28.5277 7.85625 32.2116L19.6891 46.6776C19.8482 46.8722 20.0485 47.029 20.2757 47.1367C20.5028 47.2444 20.7511 47.3003 21.0025 47.3003C21.2539 47.3003 21.5022 47.2444 21.7293 47.1367C21.9565 47.029 22.1568 46.8722 22.3159 46.6776L34.1488 32.2116C37.1607 28.527 38.6246 23.8178 38.2321 19.0758C37.8864 14.8857 35.977 10.9788 32.883 8.13072C29.7891 5.28264 25.7369 3.70165 21.5308 3.70163H20.4668Z" fill="black"/>
</svg>
